<?xml version="1.0" standalone="no"?>
<!DOCTYPE svg PUBLIC "-//W3C//DTD SVG 20010904//EN"
 "http://www.w3.org/TR/2001/REC-SVG-20010904/DTD/svg10.dtd">
<svg version="1.0" xmlns="http://www.w3.org/2000/svg"
 width="512.000000pt" height="512.000000pt" viewBox="0 0 512.000000 512.000000"
 preserveAspectRatio="xMidYMid meet">
<metadata>
Created by potrace 1.11, written by Peter Selinger 2001-2013
</metadata>
<g transform="translate(0.000000,512.000000) scale(0.100000,-0.100000)"
fill="#000000" stroke="none">
<path d="M110 4300 l-25 -19 0 -1080 c0 -1233 -10 -1111 95 -1119 l60 -4 0
-164 c0 -143 -2 -166 -18 -182 -55 -56 -114 -176 -131 -263 -13 -72 -6 -214
15 -275 42 -125 140 -251 242 -312 226 -132 504 -98 685 85 93 92 146 199 162
328 2 17 4 38 4 48 1 16 57 17 1041 17 l1040 0 1 -22 c0 -13 2 -32 4 -43 2
-11 6 -38 10 -60 9 -63 79 -195 132 -250 69 -72 91 -88 174 -128 218 -105 470
-59 641 117 68 69 132 189 144 271 5 28 9 53 10 58 1 4 2 18 3 32 l1 25 285 0
c299 0 333 4 349 45 10 28 7 858 -4 915 -6 29 -17 66 -25 82 -8 15 -22 41 -31
58 -25 49 -121 125 -190 151 l-63 24 -3 330 -3 330 -32 67 c-44 93 -100 151
-191 196 l-76 37 -445 3 c-245 2 -455 1 -468 -3 -13 -3 -32 -14 -43 -25 -20
-20 -20 -37 -20 -875 l0 -855 -160 0 -160 0 0 120 0 120 53 0 c36 0 60 6 77
20 l25 19 0 1080 c0 1024 -1 1081 -18 1098 -17 17 -95 18 -1570 20 -1519 3
-1553 2 -1577 -17z m2850 -2340 l0 -120 -1014 0 -1013 0 -65 29 c-35 16 -88
34 -118 40 -84 15 -215 7 -285 -18 -32 -11 -61 -21 -62 -21 -2 0 -3 47 -3 105
l0 105 1280 0 1280 0 0 -120z"/>
</g>
</svg>
